<?xml version="1.0" standalone="no"?>
<!DOCTYPE svg PUBLIC "-//W3C//DTD SVG 20010904//EN"
 "http://www.w3.org/TR/2001/REC-SVG-20010904/DTD/svg10.dtd">
<svg version="1.0" xmlns="http://www.w3.org/2000/svg"
 width="526.000000pt" height="526.000000pt" viewBox="0 0 526.000000 526.000000"
 preserveAspectRatio="xMidYMid meet">
<metadata>
Created by potrace 1.11, written by Peter Selinger 2001-2013
</metadata>
<g transform="translate(0.000000,526.000000) scale(0.100000,-0.100000)"
fill="#000000" stroke="none">
<path d="M1567 5184 c-1 -1 -35 -4 -74 -8 -85 -7 -200 -29 -298 -58 -80 -23
-267 -102 -307 -130 -14 -10 -29 -18 -33 -18 -4 0 -41 -23 -83 -51 -383 -256
-642 -674 -701 -1129 -16 -124 -6 -389 19 -509 100 -485 405 -886 845 -1113
136 -70 340 -135 478 -152 26 -3 68 -9 94 -12 96 -12 407 -5 432 10 4 3 12 1
19 -3 9 -6 13 -87 13 -329 l1 -322 321 0 c177 -1 465 -1 640 -1 296 1 318 -1
316 -17 -1 -9 -1 -296 0 -638 l1 -620 955 0 955 0 0 30 c1 17 2 303 3 636 l2
605 -968 968 -969 969 8 36 c13 64 12 373 -2 469 -14 102 -61 303 -75 318 -5
5 -9 15 -9 23 0 7 -19 55 -42 105 -161 351 -430 626 -771 787 -91 43 -219 90
-287 106 -75 17 -164 34 -216 40 -55 6 -261 13 -267 8z m-112 -647 c204 -49
359 -167 445 -337 54 -106 73 -200 67 -320 -9 -172 -65 -299 -187 -420 -127
-127 -272 -185 -455 -183 -500 4 -798 565 -521 981 96 145 258 254 414 278 21
3 38 7 40 9 4 4 175 -3 197 -8z"/>
</g>
</svg>
